<?xml version="1.0" standalone="no"?>
<!DOCTYPE svg PUBLIC "-//W3C//DTD SVG 20010904//EN"
 "http://www.w3.org/TR/2001/REC-SVG-20010904/DTD/svg10.dtd">
<svg version="1.0" xmlns="http://www.w3.org/2000/svg"
 width="200.000000pt" height="200.000000pt" viewBox="0 0 200.000000 200.000000"
 preserveAspectRatio="xMidYMid meet">
<metadata>
Created by potrace 1.15, written by Peter Selinger 2001-2017
</metadata>
<g transform="translate(0.000000,200.000000) scale(0.100000,-0.100000)"
fill="#000000" stroke="none">
<path d="M1830 1968 c0 -31 3 -35 19 -31 32 8 93 -16 89 -35 -2 -10 -11 -16
-21 -14 -20 3 -22 -9 -5 -26 16 -16 19 -83 4 -101 -9 -12 -8 -13 4 -6 36 20
41 27 29 42 -17 20 -3 28 17 9 12 -12 14 -20 6 -28 -6 -6 -8 -17 -5 -25 3 -7
-3 -23 -12 -33 -10 -11 -13 -20 -7 -20 6 0 18 -3 28 -7 14 -5 16 -3 11 11 -4
10 -4 23 0 29 4 7 9 60 10 120 3 92 1 108 -13 114 -10 4 -20 0 -26 -10 -11
-21 -28 -22 -28 -2 0 8 -7 15 -16 15 -10 0 -14 6 -10 15 7 18 -39 22 -50 4 -4
-8 -9 -7 -15 2 -6 9 -9 2 -9 -23z"/>
<path d="M970 1900 c-76 -11 -207 -56 -244 -84 -65 -50 -146 -135 -159 -168
-23 -55 -40 -174 -41 -290 -1 -76 -5 -108 -13 -108 -20 0 -27 -21 -25 -82 1
-44 10 -74 37 -128 19 -38 36 -81 37 -95 1 -14 5 -25 8 -25 3 0 10 -12 17 -27
27 -64 35 -124 34 -250 l-1 -132 31 -36 c49 -55 105 -90 230 -140 62 -26 117
-49 122 -52 4 -2 -3 -13 -17 -24 -13 -11 -55 -56 -93 -102 -109 -131 -94 -124
-132 -61 -20 34 -31 65 -30 82 2 20 -11 50 -47 103 -47 70 -62 112 -76 213 -2
14 -11 6 -34 -31 -39 -62 -80 -93 -169 -128 -38 -15 -89 -39 -112 -52 -47 -27
-260 -113 -280 -113 -10 0 -13 -23 -13 -85 l0 -86 420 1 420 1 6 24 c7 29 34
42 34 16 0 -10 6 -23 13 -28 6 -6 95 -11 201 -12 l189 -2 -6 40 c-3 24 -1 41
5 41 5 0 6 6 2 13 -4 6 -3 8 2 4 4 -4 9 -16 9 -25 1 -9 2 -29 3 -44 l2 -28
350 0 350 0 0 103 0 102 -48 17 c-26 9 -90 31 -142 48 -52 18 -113 40 -135 51
-22 10 -65 29 -95 41 -89 37 -133 67 -170 115 -32 42 -35 53 -37 117 -1 54 5
88 24 141 34 93 34 94 92 222 39 85 52 125 54 168 2 53 -3 64 -34 77 -4 2 -3
30 3 63 9 53 7 122 -8 277 -4 51 -28 99 -81 166 -41 50 -105 112 -116 112 -5
0 -21 8 -35 18 -71 49 -202 76 -302 62z m-251 -829 c6 -10 8 -20 6 -22 -7 -8
-16 -70 -19 -146 -2 -41 -8 -79 -15 -86 -6 -6 -11 -21 -11 -34 0 -13 -2 -23
-5 -23 -12 0 -41 37 -37 48 2 7 -1 19 -8 27 -18 22 -21 152 -4 159 8 3 14 0
14 -6 0 -6 2 -9 5 -6 3 3 3 13 -1 22 -5 14 -9 14 -22 4 -13 -11 -14 -10 -7 12
11 36 29 50 55 43 19 -5 22 -3 17 10 -9 24 20 22 32 -2z m611 -636 c-6 -8 -8
-20 -4 -26 4 -7 3 -9 -3 -6 -6 4 -13 0 -17 -8 -4 -10 1 -15 14 -15 11 0 20 -4
20 -10 0 -5 -4 -10 -10 -10 -5 0 -10 -10 -10 -22 0 -13 -7 -43 -16 -68 -13
-36 -13 -46 -2 -55 11 -9 14 -25 9 -58 -1 -4 -18 11 -38 34 -20 22 -60 54 -87
69 -43 25 -47 30 -31 36 32 12 87 56 134 107 40 43 70 67 41 32z"/>
</g>
</svg>
