<?xml version="1.0"?>
<svg xmlns="http://www.w3.org/2000/svg" height="512px" viewBox="0 -36 512.0007 512" width="512px"><g><path d="m90.632812 437.539062c31.777344-6.664062 47.039063-38.605468 53.472657-80.40625 25.550781 13.921876 57.097656 21.996094 93.984375 24.007813 4.113281.230469 7.671875-2.945313 7.898437-7.082031.226563-4.136719-2.945312-7.675782-7.082031-7.898438-36.667969-2.003906-68.621094-10.675781-92.785156-25.152344 7.390625-75-8.152344-174.324218-8.152344-213.421874 0-52.800782 22.753906-74.578126 24.507812-80.496094 51.515626-42.792969 135.523438-42.804688 187.050782 0 2.132812 7.164062 24.511718 27.429687 24.511718 80.496094 0 39.042968-15.542968 138.4375-8.152343 213.421874-24.164063 14.472657-56.121094 23.148438-92.789063 25.148438-4.136718.226562-7.308594 3.761719-7.082031 7.902344.21875 3.996094 3.527344 7.089844 7.484375 7.089844.136719 0 .277344 0 .414062-.007813 36.890626-2.015625 68.433594-10.085937 93.988282-24.007813 6.433594 41.800782 21.695312 73.738282 53.472656 80.402344 78.207031 16.402344 105.285156-47.917968 83.214844-124.089844-3.640625-12.5625-5.507813-33.148437-7.664063-56.988281l-.078125-.839843c-.371094-4.128907-4.03125-7.167969-8.148437-6.796876-4.125.375-7.167969 4.023438-6.792969 8.148438l.074219.84375c2.230469 24.609375 4.15625 45.863281 8.195312 59.808594 18.511719 63.871094 1.460938 119.316406-65.722656 105.230468-75.328125-15.792968-34.023437-245.265624-35.484375-300.316406-.734375-27.824218-7.667969-55.089844-23.304688-77.453125 82.289063 10.074219 103.601563 94.492188 112.820313 177.035157.460937 4.113281 4.160156 7.085937 8.289063 6.621093 4.117187-.460937 7.085937-4.171875 6.625-8.289062-9.371094-83.851563-32.574219-181.300781-129.644532-190.667969-3.28125-.316406-6.417968.535156-8.96875 2.308594-55.394531-42.761719-142.109375-42.808594-197.566406 0-2.554688-1.777344-5.6875-2.625-8.96875-2.308594h-.003906c-53.5625 5.167969-87.230469 37.808594-106.90625 87.179688-27.738282 69.601562-23.839844 161.6875-33.925782 196.484374-22.125 76.363282 5.167969 140.460938 83.21875 124.09375zm-68.804687-119.917968c17.277344-59.617188-3.359375-256.855469 124.511719-272.535156-13.910156 19.878906-20.875 43.746093-22.796875 67.746093-4.449219 55.835938 41.316406 293.808594-35.988281 310.019531-66.925782 14.03125-84.339844-41-65.726563-105.230468zm0 0" data-original="#000000" class="active-path" data-old_color="#000000" fill="#FFFFFF"/><path d="m256.003906 298.6875c22.652344 31.527344 72.46875 15.355469 72.46875-23.277344 0-4.140625-3.355468-7.5-7.5-7.5-4.144531 0-7.503906 3.359375-7.503906 7.5 0 13.777344-11.207031 24.984375-24.980469 24.984375-13.777343 0-24.984375-11.207031-24.984375-24.984375v-2.800781c7.015625-2.460937 19.128906-8.054687 31.664063-20.042969 5.820312-5.566406 5.15625-15.0625-1.371094-19.78125-23.761719-17.15625-49.660156-18.71875-75.589844 0-6.53125 4.71875-7.191406 14.214844-1.371093 19.785156 12.535156 11.984376 24.648437 17.578126 31.664062 20.039063v2.800781c0 13.777344-11.207031 24.984375-24.984375 24.984375-13.773437 0-24.980469-11.207031-24.980469-24.984375 0-4.140625-3.359375-7.5-7.503906-7.5s-7.503906 3.359375-7.503906 7.5c.003906 38.574219 49.800781 54.835938 72.476562 23.277344zm-26.898437-55.199219c18.433593-12.257812 35.417969-12.222656 53.792969 0-12.050782 10.859375-23.128907 14.707031-26.894532 15.773438-3.800781-1.078125-14.863281-4.929688-26.898437-15.773438zm0 0" data-original="#000000" class="active-path" data-old_color="#000000" fill="#FFFFFF"/><path d="m292.707031 171.175781c0 12.714844 10.347657 23.0625 23.066407 23.0625s23.066406-10.347656 23.066406-23.0625c0-12.71875-10.347656-23.066406-23.066406-23.066406s-23.066407 10.347656-23.066407 23.066406zm23.066407-8.0625c4.445312 0 8.058593 3.617188 8.058593 8.0625 0 4.441407-3.613281 8.058594-8.058593 8.058594-4.445313 0-8.0625-3.617187-8.0625-8.058594 0-4.445312 3.617187-8.0625 8.0625-8.0625zm0 0" data-original="#000000" class="active-path" data-old_color="#000000" fill="#FFFFFF"/><path d="m173.167969 171.175781c0 12.714844 10.347656 23.0625 23.066406 23.0625 12.714844 0 23.0625-10.347656 23.0625-23.0625 0-12.71875-10.347656-23.066406-23.0625-23.066406-12.71875 0-23.066406 10.347656-23.066406 23.066406zm23.066406-8.0625c4.441406 0 8.058594 3.617188 8.058594 8.0625 0 4.441407-3.613281 8.058594-8.058594 8.058594s-8.0625-3.617187-8.0625-8.058594c0-4.445312 3.617187-8.0625 8.0625-8.0625zm0 0" data-original="#000000" class="active-path" data-old_color="#000000" fill="#FFFFFF"/><path d="m228.875 31.160156c-4.113281-.367187-7.769531 2.683594-8.136719 6.808594-.019531.242188-2.40625 24.433594-24.207031 41.957031-7.144531 5.738281-2.800781 17.253907 6.265625 16.898438 7.359375-.261719 16.472656-.894531 24.230469-2.359375-.257813.492187-.539063 1.015625-.835938 1.5625-2.148437 3.949218-1.636718 8.691406 1.304688 12.082031s7.554687 4.558594 11.75 2.996094c15.226562-5.671875 52.019531-23.472657 64.789062-66.183594 1.183594-3.972656-1.070312-8.152344-5.039062-9.339844-3.972656-1.183593-8.152344 1.070313-9.335938 5.039063-8.570312 28.65625-30.164062 44.210937-45.320312 51.886718 4.355468-12.765624-4.421875-18.320312-13.050782-14.6875-2.867187 1.207032-7.851562 2.226563-14.21875 2.953126 16.457032-19.421876 18.523438-40.425782 18.617188-41.476563.363281-4.125-2.683594-7.769531-6.8125-8.136719zm0 0" data-original="#000000" class="active-path" data-old_color="#000000" fill="#FFFFFF"/></g> </svg>
